<svg width="500" height="350" viewBox="0 0 500 350" xmlns="http://www.w3.org/2000/svg">
  <defs>
    <!-- Terminal/IDE background gradient -->
    <linearGradient id="terminalBg" x1="0%" y1="0%" x2="0%" y2="100%">
      <stop offset="0%" style="stop-color:#1e1e1e;stop-opacity:1" />
      <stop offset="100%" style="stop-color:#252526;stop-opacity:1" />
    </linearGradient>
    
    <!-- Glow effect -->
    <filter id="glow">
      <feGaussianBlur stdDeviation="2" result="coloredBlur"/>
      <feMerge> 
        <feMergeNode in="coloredBlur"/>
        <feMergeNode in="SourceGraphic"/>
      </feMerge>
    </filter>
  </defs>
  
  <!-- Terminal window background -->
  <rect width="500" height="350" fill="url(#terminalBg)" rx="8" ry="8"/>
  
  <!-- Terminal title bar -->
  <rect width="500" height="30" fill="#323233" rx="8" ry="8"/>
  <rect width="500" height="22" y="8" fill="#323233"/>
  
  <!-- Window controls -->
  <circle cx="20" cy="15" r="6" fill="#ff5f57"/>
  <circle cx="40" cy="15" r="6" fill="#ffbd2e"/>
  <circle cx="60" cy="15" r="6" fill="#28ca42"/>
  
  <!-- Terminal title -->
  <text x="250" y="20" text-anchor="middle" font-family="SF Mono, Monaco, Consolas, monospace" font-size="12" fill="#cccccc">McpServer.php • PHP MCP SDK</text>
  
  <!-- Code content -->
  <g font-family="SF Mono, Monaco, Consolas, monospace" font-size="14">
    
    <!-- Line numbers -->
    <g fill="#858585" opacity="0.6">
      <text x="20" y="55">1</text>
      <text x="20" y="75">2</text>
      <text x="20" y="95">3</text>
      <text x="20" y="115">4</text>
      <text x="20" y="135">5</text>
      <text x="20" y="155">6</text>
      <text x="20" y="175">7</text>
      <text x="20" y="195">8</text>
      <text x="20" y="215">9</text>
      <text x="15" y="235">10</text>
      <text x="15" y="255">11</text>
      <text x="15" y="275">12</text>
      <text x="15" y="295">13</text>
      <text x="15" y="315">14</text>
      <text x="15" y="335">15</text>
      <text x="15" y="355">16</text>
    </g>
    
    <!-- Vertical line separator -->
    <line x1="40" y1="40" x2="40" y2="330" stroke="#3e3e3e" stroke-width="1"/>
    
    <!-- PHP opening tag -->
    <text x="50" y="55" fill="#569cd6">&lt;?php</text>
    
    <!-- Empty line -->
    
    <!-- Namespace and use statements -->
    <text x="50" y="95" fill="#c586c0">namespace</text>
    <text x="130" y="95" fill="#dcdcaa">MCP\Server</text>
    <text x="214" y="95" fill="#cccccc">;</text>
    
    <text x="50" y="115" fill="#c586c0">use</text>
    <text x="80" y="115" fill="#4ec9b0">MCP\Types\Implementation</text>
    <text x="281" y="115" fill="#cccccc">;</text>
    
    <text x="50" y="135" fill="#c586c0">use</text>
    <text x="80" y="135" fill="#4ec9b0">MCP\Server\Transport\StdioServerTransport</text>
    <text x="424" y="135" fill="#cccccc">;</text>
    
    <!-- Empty line -->
    
    <!-- Class definition -->
    <text x="50" y="175" fill="#569cd6">class</text>
    <text x="95" y="175" fill="#4ec9b0">McpServer</text>
    <text x="176" y="175" fill="#cccccc">{</text>
    
    <!-- Method definition -->
    <text x="70" y="195" fill="#569cd6">public</text>
    <text x="125" y="195" fill="#569cd6">function</text>
    <text x="195" y="195" fill="#dcdcaa">tool</text>
    <text x="228" y="195" fill="#cccccc">()</text>
    <text x="246" y="195" fill="#cccccc">{</text>
    
    <!-- Method body with MCP-specific code -->
    <text x="90" y="215" fill="#6a9955">// Register MCP tool</text>
    
    <text x="90" y="235" fill="#569cd6">$this</text>
    <text x="130" y="235" fill="#cccccc">-></text>
    <text x="147" y="235" fill="#dcdcaa">registerTool</text>
    <text x="248" y="235" fill="#cccccc">(</text>
    
    <text x="110" y="255" fill="#ce9178">'ai_assistant'</text>
    <text x="224" y="255" fill="#cccccc">,</text>
    
    <text x="110" y="275" fill="#ce9178">'Connect AI models'</text>
    <text x="265" y="275" fill="#cccccc">,</text>
    
    <text x="110" y="295" fill="#569cd6">function</text>
    <text x="180" y="295" fill="#cccccc">(</text>
    <text x="186" y="295" fill="#4ec9b0">array</text>
    <text x="222" y="295" fill="#9cdcfe">$args</text>
    <text x="260" y="295" fill="#cccccc">)</text>
    <text x="270" y="295" fill="#cccccc">{</text>
    
    <text x="130" y="315" fill="#c586c0">return</text>
    <text x="180" y="315" fill="#ce9178">'MCP Connected!'</text>
    <text x="312" y="315" fill="#cccccc">;</text>
    
    <!-- Closing braces with proper indentation -->
    <text x="110" y="335" fill="#cccccc">}</text>
    <text x="90" y="355" fill="#cccccc">);</text>
    <text x="70" y="375" fill="#cccccc">}</text>
    <text x="50" y="395" fill="#cccccc">}</text>
    
    <!-- Animated cursor -->
    <rect x="317" y="303" width="2" height="16" fill="#ffffff">
      <animate attributeName="opacity" values="1;0;1" dur="1s" repeatCount="indefinite"/>
    </rect>
    
  </g>
  
  <!-- Syntax highlighting accents (subtle background highlights) -->
  <g opacity="0.08">
    <!-- PHP tag highlight -->
    <rect x="50" y="42" width="60" height="18" fill="#569cd6" rx="2"/>
    <!-- Class name highlight -->
    <rect x="95" y="162" width="80" height="18" fill="#4ec9b0" rx="2"/>
    <!-- String highlights -->
    <rect x="110" y="242" width="90" height="18" fill="#ce9178" rx="2"/>
    <rect x="110" y="262" width="120" height="18" fill="#ce9178" rx="2"/>
    <rect x="180" y="302" width="110" height="18" fill="#ce9178" rx="2"/>
  </g>
  
  <!-- Terminal prompt at bottom -->
  <g transform="translate(0, 410)">
    <text x="50" y="20" font-family="SF Mono, Monaco, Consolas, monospace" font-size="12" fill="#4ec9b0">dale@php-mcp-sdk</text>
    <text x="145" y="20" font-family="SF Mono, Monaco, Consolas, monospace" font-size="12" fill="#cccccc">:</text>
    <text x="155" y="20" font-family="SF Mono, Monaco, Consolas, monospace" font-size="12" fill="#569cd6">~/server</text>
    <text x="205" y="20" font-family="SF Mono, Monaco, Consolas, monospace" font-size="12" fill="#4ec9b0">$</text>
    <text x="220" y="20" font-family="SF Mono, Monaco, Consolas, monospace" font-size="12" fill="#cccccc">php mcpserver.php</text>
    <text x="350" y="20" font-family="SF Mono, Monaco, Consolas, monospace" font-size="12" fill="#6a9955">✓</text>
    
    <!-- Blinking cursor in terminal -->
    <rect x="345" y="8" width="8" height="16" fill="#ffffff">
      <animate attributeName="opacity" values="1;0;1" dur="0.8s" repeatCount="indefinite"/>
    </rect>
  </g>
  
  <!-- Subtle scan lines effect -->
  <defs>
    <pattern id="scanlines" patternUnits="userSpaceOnUse" width="1" height="4">
      <rect width="1" height="2" fill="#000000" opacity="0.02"/>
      <rect y="2" width="1" height="2" fill="transparent"/>
    </pattern>
  </defs>
  <rect width="500" height="350" fill="url(#scanlines)"/>
  
  <!-- Corner radius border -->
  <rect width="500" height="350" fill="none" stroke="#3e3e3e" stroke-width="1" rx="8" ry="8"/>
  
</svg>